<svg width="128" height="128" viewBox="0 0 128 128" fill="none" xmlns="http://www.w3.org/2000/svg">
<g id="Layer_1">
<rect width="128" height="128" rx="64" fill="white" fill-opacity="0.1"/>
<g id="Group 14">
<path id="Vector" d="M84.9232 41.1268C85.1915 41.3979 85.0992 41.6734 85.0718 41.9229C84.7761 44.7179 84.2785 47.4755 83.2243 50.0931C82.3546 52.2521 81.3436 54.3721 79.8783 56.1792C78.8443 57.4556 79.0678 58.7464 79.2712 60.1064C79.848 63.9543 79.9461 67.8165 79.7168 71.6946C79.5293 74.8762 79.0995 78.0188 78.3755 81.1268C77.2867 85.7996 75.4565 90.1652 73.0408 94.2957C72.9369 94.4731 72.8475 94.7572 72.5966 94.6735C72.3067 94.5783 72.4769 94.3101 72.523 94.1226C73.8325 88.8498 74.3445 83.4934 74.2046 78.0707C74.046 71.9167 73.0711 65.9027 71.062 60.0704C70.7664 59.2137 70.5515 58.3253 70.2111 57.4888C69.9948 56.9566 70.1852 56.6653 70.5861 56.4259C71.9158 55.6341 73.2427 54.8423 74.4787 53.9034C77.1468 51.8757 79.6519 49.6921 81.6104 46.9375C82.8363 45.2141 83.9223 43.417 84.7141 41.4499C84.7588 41.3402 84.8439 41.2465 84.9218 41.1282L84.9232 41.1268Z" fill="white"/>
<path id="Vector_2" d="M73.3177 96.3869C74.2292 94.8336 75.2503 93.3683 76.1185 91.8064C78.0741 88.2845 79.5798 84.5809 80.6341 80.697C81.9912 75.6968 82.7109 70.613 82.5263 65.4224C82.5003 64.7085 82.7512 64.3811 83.4839 64.2326C84.8929 63.947 86.2717 63.5201 87.6735 63.1942C88.5663 62.9865 88.6268 63.0471 88.6067 63.9961C88.5461 66.7233 88.2432 69.4303 87.786 72.1172C87.1615 75.7934 86.1707 79.3644 84.6074 82.7622C82.4094 87.5403 79.4053 91.7083 75.2964 95.037C74.6806 95.536 74.1239 96.1215 73.3177 96.3869Z" fill="white"/>
<path id="Vector_3" d="M84.0737 39.6471C83.6266 39.4928 83.6338 39.1394 83.5718 38.8409C83.4204 38.1111 83.3036 37.3756 83.1435 36.6473C83.0267 36.1093 82.7267 35.8137 82.1123 35.9088C81.2946 36.0358 80.4552 35.9737 79.6418 36.1713C79.4355 36.2218 79.1615 36.2867 79.0779 36.0329C78.9798 35.7372 79.3216 35.7387 79.4788 35.6406C80.1581 35.2166 80.8331 34.7781 81.547 34.4176C82.219 34.0772 82.2291 33.6244 81.9666 33.0273C81.6551 32.3192 81.3667 31.6009 81.0797 30.8813C81.0133 30.7169 80.8879 30.4976 81.0739 30.3635C81.2773 30.2164 81.4027 30.4457 81.534 30.5625C82.1512 31.1135 82.7714 31.6615 83.3771 32.2269C83.7968 32.6191 84.166 32.6768 84.6246 32.2514C85.2491 31.6702 85.9255 31.1438 86.5861 30.6015C86.7159 30.4948 86.837 30.2409 87.0404 30.4111C87.2163 30.5582 87.0548 30.7587 86.9841 30.9231C86.6971 31.5807 86.3942 32.2326 86.1202 32.896C85.7121 33.884 85.8275 34.1681 86.7678 34.7089C87.323 35.0291 87.8653 35.3709 88.4119 35.7055C88.5864 35.8122 88.8749 35.8959 88.758 36.1569C88.647 36.4035 88.3845 36.2449 88.1826 36.2232C87.3865 36.1382 86.589 36.0545 85.7928 35.9694C85.2304 35.9088 84.9016 36.0906 84.7818 36.7078C84.5929 37.69 84.3175 38.6548 84.0737 39.6456V39.6471Z" fill="white"/>
<path id="Vector_4" d="M74.3777 48.971C74.3763 50.7262 73.1475 51.9997 71.463 51.9939C69.966 51.9881 68.4315 50.4017 68.4704 48.9003C68.5079 47.4552 70.0049 46.0635 71.5539 46.1039C72.9932 46.1414 74.5176 47.0572 74.3763 48.971H74.3777Z" fill="white"/>
<path id="Vector_5" d="M72.3298 85.7707C72.412 83.3896 72.4351 81.0157 72.2952 78.8798C72.3572 77.5082 72.0947 76.4064 71.9966 75.2901C71.5726 70.4673 70.4073 65.8176 68.7617 61.2804C67.4089 57.5479 65.5888 54.0476 63.4572 50.7046C62.6683 49.4671 62.6611 49.4239 61.3098 50.1883C58.2191 51.9362 55.1443 53.7102 52.0752 55.4956C49.86 56.785 47.6678 58.1161 45.4598 59.4185C43.481 60.5852 41.4951 61.7404 39.5092 62.8957C39.1861 63.0831 38.9265 63.2432 39.1688 63.7019C39.6044 64.5282 39.975 65.3878 40.3904 66.2257C42.4138 70.3014 43.3657 74.6512 43.7392 79.1567C43.8878 80.9551 43.6988 82.7291 43.5315 84.5102C43.3455 86.4947 42.8623 88.41 42.134 90.2546C41.6653 91.4429 42.098 92.3775 43.3801 92.5881C43.9079 92.6746 44.4228 92.803 44.9463 92.901C48.8274 93.6351 52.7113 94.3461 56.5952 95.0629C60.4257 95.7696 64.2562 96.4777 68.0882 97.1786C69.0588 97.356 70.0338 97.5176 71.0101 97.6676C71.3173 97.7152 71.7082 97.6863 71.4587 97.232C70.8472 96.1229 71.101 94.9966 71.3173 93.8745C71.8336 91.1963 72.2331 88.5124 72.3283 85.7736L72.3298 85.7707ZM64.7523 70.4327L67.2532 68.7511C67.2676 68.741 67.2863 68.7453 67.2964 68.7597L67.4998 69.0626C67.5099 69.077 67.5055 69.0958 67.4911 69.1059L64.9903 70.7875C64.9759 70.7976 64.9571 70.7932 64.947 70.7788L64.7437 70.476C64.7336 70.4615 64.7379 70.4428 64.7523 70.4327ZM66.9431 73.072C66.9474 73.0878 66.9373 73.1051 66.92 73.1094L65.9869 73.3402C65.971 73.3445 65.9537 73.3344 65.9494 73.3171L65.8614 72.9638C65.8571 72.9479 65.8672 72.9306 65.8845 72.9263L66.8176 72.6955C66.8335 72.6912 66.8508 72.7013 66.8551 72.7186L66.9431 73.072ZM62.6251 68.4251L63.1904 67.6478C63.2005 67.6333 63.2193 67.6305 63.2337 67.6406L63.5279 67.854C63.5423 67.8641 63.5452 67.8829 63.5351 67.8973L62.9698 68.6746C62.9597 68.689 62.9409 68.6919 62.9265 68.6818L62.6323 68.4684C62.6179 68.4583 62.615 68.4395 62.6251 68.4251ZM61.0603 65.0648C61.066 65.0489 61.0833 65.0402 61.0992 65.046L61.4425 65.1672C61.4583 65.1729 61.467 65.1902 61.4612 65.2061L60.6925 67.4011C60.6867 67.417 60.6694 67.4257 60.6536 67.4199L60.3103 67.2987C60.2944 67.293 60.2858 67.2757 60.2916 67.2598L61.0603 65.0648ZM57.1533 65.8955L57.5167 65.8782C57.534 65.8782 57.5485 65.8911 57.5485 65.907L57.6061 67.0983C57.6061 67.1156 57.5932 67.13 57.5773 67.13L57.2139 67.1473C57.1966 67.1473 57.1821 67.1343 57.1821 67.1185L57.1244 65.9272C57.1244 65.9099 57.1374 65.8955 57.1533 65.8955ZM56.0341 68.317L56.6701 68.7049L58.1614 69.615L59.6527 68.7049L60.2887 68.317L60.3738 68.2665L61.5275 68.8318V75.2944L59.6527 74.3743V71.3081L58.1614 72.1215L56.6701 71.3081V74.3743L54.7953 75.2944V68.8318L55.949 68.2665L56.0327 68.317H56.0341ZM54.3338 65.0431L54.677 64.9205C54.6929 64.9148 54.7102 64.9234 54.7159 64.9393L55.6361 67.5151C55.6418 67.5309 55.6332 67.5483 55.6173 67.554L55.2741 67.6766C55.2582 67.6824 55.2409 67.6737 55.2351 67.6579L54.315 65.0821C54.3092 65.0662 54.3179 65.0489 54.3338 65.0431ZM51.2993 68.7237L51.5575 68.4655C51.569 68.454 51.5892 68.454 51.6007 68.4655L52.5656 69.4304C52.5771 69.4419 52.5771 69.4621 52.5656 69.4736L52.3074 69.7318C52.2959 69.7433 52.2757 69.7433 52.2642 69.7318L51.2993 68.7669C51.2878 68.7554 51.2878 68.7352 51.2993 68.7237ZM48.275 69.6164L48.4567 69.3006C48.4654 69.2861 48.4841 69.2804 48.4985 69.289L51.3628 70.9432C51.3772 70.9519 51.383 70.9706 51.3743 70.9851L51.1926 71.3009C51.1839 71.3153 51.1652 71.3211 51.1508 71.3124L48.2865 69.6582C48.2721 69.6496 48.2663 69.6308 48.275 69.6164ZM50.3244 74.4262V74.7911C50.3244 74.8084 50.31 74.8214 50.2941 74.8214H48.8461C48.8288 74.8214 48.8158 74.8069 48.8158 74.7911V74.4262C48.8158 74.4089 48.8302 74.3959 48.8461 74.3959H50.2941C50.3114 74.3959 50.3244 74.4103 50.3244 74.4262ZM47.1255 77.3135L47.0578 76.9559C47.0549 76.9385 47.065 76.9227 47.0823 76.9198L50.3388 76.3025C50.3561 76.2996 50.372 76.3097 50.3749 76.327L50.4426 76.6847C50.4455 76.702 50.4354 76.7179 50.4181 76.7208L47.1616 77.338C47.1443 77.3409 47.1284 77.3308 47.1255 77.3135ZM51.5113 79.249L50.0879 80.1576C50.0734 80.1662 50.0547 80.1619 50.0446 80.1475L49.8484 79.8403C49.8398 79.8259 49.8441 79.8071 49.8585 79.797L51.282 78.8884C51.2964 78.8798 51.3152 78.8841 51.3253 78.8985L51.5214 79.2057C51.5301 79.2201 51.5258 79.2389 51.5113 79.249ZM60.2944 84.2174C60.2944 84.4323 60.1199 84.6054 59.9065 84.6054H58.7614V84.6313C58.7614 84.8059 58.62 84.9472 58.4455 84.9472H57.7129C57.5384 84.9472 57.397 84.8073 57.397 84.6313V84.6054H56.2519C56.037 84.6054 55.8639 84.4309 55.8639 84.2174V84.1424C55.8639 83.9275 56.0385 83.7545 56.2519 83.7545H59.9051C60.1199 83.7545 60.293 83.929 60.293 84.1424V84.2174H60.2944ZM60.6348 83.0954C60.6348 83.13 60.6074 83.1574 60.5728 83.1574H55.5842C55.5495 83.1574 55.5221 83.13 55.5221 83.0954V82.3671C55.5221 82.3324 55.5495 82.305 55.5842 82.305H60.5728C60.6074 82.305 60.6348 82.3324 60.6348 82.3671V83.0954ZM60.805 81.6474C60.805 81.682 60.7776 81.7094 60.743 81.7094H55.4125C55.3779 81.7094 55.3505 81.682 55.3505 81.6474V80.9191C55.3505 80.8845 55.3779 80.8571 55.4125 80.8571H60.743C60.7776 80.8571 60.805 80.8845 60.805 80.9191V81.6474ZM64.4379 78.0462C64.0269 78.887 63.45 79.6341 62.7505 80.2427L62.3785 80.0609L61.5261 79.6427L59.6512 78.7226L58.16 77.9914L56.6687 78.7226L54.7938 79.6427L53.9415 80.0609L53.5694 80.2427C52.8699 79.6341 52.2945 78.887 51.882 78.0462C51.7075 77.6914 51.5618 77.3193 51.4508 76.9342C51.269 76.3126 51.171 75.655 51.171 74.9742C51.171 72.8426 52.1257 70.9346 53.6299 69.6539C53.7309 69.5674 53.8347 69.4837 53.94 69.4044V77.0366L54.7924 76.6184L56.6673 75.6982L58.1585 74.967L59.6498 75.6982L61.5247 76.6184L62.377 77.0366V69.4044C62.4823 69.4851 62.5861 69.5674 62.6871 69.6539C64.1913 70.9346 65.1461 72.8426 65.1461 74.9742C65.1461 75.6535 65.0494 76.3126 64.8663 76.9342C64.7552 77.3193 64.6096 77.6914 64.4351 78.0462H64.4379ZM66.1701 78.998L65.9883 79.3139C65.9797 79.3283 65.9609 79.3341 65.9465 79.3254L65.1143 78.8452C65.0999 78.8365 65.0942 78.8178 65.1028 78.8033L65.2845 78.4875C65.2932 78.4731 65.3119 78.4673 65.3263 78.476L66.1585 78.9562C66.1729 78.9649 66.1787 78.9836 66.1701 78.998ZM68.6233 76.4496C68.6218 76.4669 68.606 76.4785 68.5901 76.477L65.9912 76.2189C65.9739 76.2174 65.9624 76.2016 65.9638 76.1857L65.9999 75.8237C66.0013 75.8064 66.0172 75.7949 66.033 75.7963L68.6319 76.0545C68.6492 76.0559 68.6608 76.0718 68.6593 76.0876L68.6233 76.4496Z" fill="white"/>
</g>
</g>
</svg>
